<?xml version="1.0" encoding="iso-8859-1"?>
<!-- Uploaded to: SVG Repo, www.svgrepo.com, Generator: SVG Repo Mixer Tools -->
<svg fill="#000000" height="800px" width="800px" version="1.1" id="Capa_1" xmlns="http://www.w3.org/2000/svg" xmlns:xlink="http://www.w3.org/1999/xlink" 
	 viewBox="0 0 28.822 28.822" xml:space="preserve">
<g>
	<g id="c31_cart">
		<path d="M14.879,24.992c0,1.204-0.976,2.181-2.179,2.181c-1.204,0-2.179-0.977-2.179-2.181
			C10.521,22.113,14.879,22.11,14.879,24.992z"/>
		<circle cx="21.419" cy="24.992" r="2.179"/>
		<path d="M28.341,6.371c-0.478-0.479-1.414-0.465-1.414-0.465H7.76C7.067,2.653,6.615,1.65,4.471,1.65H0l0.938,2.013L4.49,3.676
			c0,0,0.828,0,1.039,1.208l2.924,14.215c0,0,0.334,2.168,2.928,2.168c0,0,11.059,0,12.781,0s1.83-1.897,1.83-1.897H12.278
			c0,0-1.778,0.131-2.06-1.943l-0.65-3.049l17.168-0.021c0.756-0.026,1.396-0.598,1.481-1.372l0.587-5.341
			C28.857,7.148,28.82,6.847,28.341,6.371z M26.316,12.213H9.107L8.275,8.33H26.74L26.316,12.213z"/>
	</g>
	<g id="Capa_1_44_">
	</g>
</g>
</svg>